<mxfile host="app.diagrams.net" modified="2023-10-04T18:18:08.297Z" agent="Mozilla/5.0 (Windows NT 10.0; Win64; x64) AppleWebKit/537.36 (KHTML, like Gecko) Chrome/117.0.0.0 Safari/537.36" version="21.8.1" etag="uJrTsjsJpEKFUWFRL3Js" type="github">
  <diagram name="Page-1" id="3bDphlNsoLsYmrWLyKkm">
    <mxGraphModel>
      <root>
        <mxCell id="0" />
        <mxCell id="1" parent="0" />
      </root>
    </mxGraphModel>
  </diagram>
</mxfile>
